# xmcd
#
# Track frame offsets:
#	150
#	17711
#	31217
#	50873
#	64829
#	82535
#	97241
#	113731
#	127687
#	146248
#	166804
#	185644
#	198110
#	212216
#
# Disc length: 3028
#
# Revision: 1
# Processed by: cddbd v1.5.1PL0 Copyright (c) Steve Scherf et al.
# Submitted via: dBpowerAMP V4.0
# Normalized: r0:TRMNUM
#
DISCID=bf0bd20e
DTITLE=Owen Blundell - From New York To Bali
DYEAR=1900
DGENRE=Country
TTITLE0=Down The Road-Owen Blundell
TTITLE1=Panning For Gold-Owen Blundell
TTITLE2=Sweet Music Man-Owen Blundell
TTITLE3=Send My Body-Owen Blundell
TTITLE4=From New York To Bali-Owen Blundell
TTITLE5=Highway Forty Blues-Owen Blundell
TTITLE6=The Slim Dusty Show-Owen Blundell
TTITLE7=The RSL-Owen Blundell
TTITLE8=Somebody Lied-Owen Blundell
TTITLE9=The Fighter-Owen Blundell
TTITLE10=Tattoos And Scars-Owen Blundell
TTITLE11=Nowhere Road-Owen Blundell
TTITLE12=We Won't Sleep Tonight-Owen Blundell
TTITLE13=Amazing Grace-Owen Blundell
EXTD=
EXTT0=
EXTT1=
EXTT2=
EXTT3=
EXTT4=
EXTT5=
EXTT6=
EXTT7=
EXTT8=
EXTT9=
EXTT10=
EXTT11=
EXTT12=
EXTT13=
PLAYORDER=
